<mxfile host="app.diagrams.net" modified="2023-02-05T12:28:40.788Z" agent="5.0 (Windows NT 10.0; Win64; x64) AppleWebKit/537.36 (KHTML, like Gecko) Chrome/109.0.0.0 Safari/537.36" etag="Ev_zk0jQnJN2xVCHf86A" version="20.8.16" type="github">
  <diagram name="Page-1" id="rfQDlVBvBO9YegOGe4pb">
    <mxGraphModel dx="880" dy="427" grid="1" gridSize="10" guides="1" tooltips="1" connect="1" arrows="1" fold="1" page="1" pageScale="1" pageWidth="827" pageHeight="1169" math="0" shadow="0">
      <root>
        <mxCell id="0" />
        <mxCell id="1" parent="0" />
        <mxCell id="rrWSx_nv68KSUnvZ_vTT-1" value="&lt;p align=&quot;center&quot; class=&quot;MsoNormal&quot;&gt;&lt;font style=&quot;font-size: 14px;&quot;&gt;Question empirique&lt;/font&gt;&lt;/p&gt;&lt;p align=&quot;center&quot; class=&quot;MsoNormal&quot;&gt;&lt;font size=&quot;3&quot;&gt;Littérature&lt;br&gt;(entretiens exploratoires)&lt;/font&gt;&lt;/p&gt;&lt;p align=&quot;center&quot; class=&quot;MsoNormal&quot;&gt;&lt;font size=&quot;3&quot;&gt;Problématique&lt;/font&gt;&lt;/p&gt;&lt;p align=&quot;center&quot; class=&quot;MsoNormal&quot;&gt;&lt;font size=&quot;3&quot;&gt;Design de recherche&lt;/font&gt;&lt;/p&gt;" style="rounded=1;whiteSpace=wrap;html=1;" vertex="1" parent="1">
          <mxGeometry x="180" y="20" width="370" height="170" as="geometry" />
        </mxCell>
        <mxCell id="rrWSx_nv68KSUnvZ_vTT-4" value="" style="rounded=0;whiteSpace=wrap;html=1;fontSize=14;" vertex="1" parent="1">
          <mxGeometry x="520" y="40" width="10" height="130" as="geometry" />
        </mxCell>
      </root>
    </mxGraphModel>
  </diagram>
</mxfile>
